<svg xmlns:ns0="http://www.w3.org/2000/svg" xmlns="http://www.w3.org/2000/svg" style="display:none"><symbol id="house" viewBox="0 0 24 24"><ns0:title>House (24x24)</ns0:title>
  <ns0:desc>Solid silhouette for CSS mask use.</ns0:desc>
  <ns0:path fill="currentColor" d="M12 3l9 7v11h-6v-6H9v6H3V10l9-7z" />
</symbol>
<symbol id="person" viewBox="0 0 24 24"><ns0:title>Person (24x24)</ns0:title>
  <ns0:desc>Solid silhouette for CSS mask use.</ns0:desc>
  <ns0:circle cx="12" cy="8" r="4" fill="currentColor" />
  <ns0:path fill="currentColor" d="M4 20a8 6 0 0 1 16 0v1H4z" />
</symbol>
<symbol id="bubble" viewBox="0 0 24 24"><ns0:title>Speech Bubble (24x24)</ns0:title>
  <ns0:desc>Solid silhouette for CSS mask use.</ns0:desc>
  <ns0:path fill="currentColor" d="M6 5h12a3 3 0 0 1 3 3v6a3 3 0 0 1-3 3H10l-4 4v-4H6a3 3 0 0 1-3-3V8a3 3 0 0 1 3-3z" />
</symbol>
<symbol id="shield" viewBox="0 0 24 24"><ns0:title>Shield (24x24)</ns0:title>
  <ns0:desc>Solid silhouette for CSS mask use.</ns0:desc>
  <ns0:path fill="currentColor" d="M12 2l8 4v6c0 5-4.1 9-8 10-3.9-1-8-5-8-10V6l8-4z" />
</symbol>
<symbol id="star" viewBox="0 0 24 24"><ns0:title>Star (24x24)</ns0:title>
  <ns0:desc>Solid silhouette for CSS mask use.</ns0:desc>
  <ns0:path fill="currentColor" d="M12 3.2l2.95 5.98 6.6.96-4.78 4.66 1.13 6.58L12 17.9 6.1 21.4l1.13-6.58L2.45 10.14l6.6-.96L12 3.2z" />
</symbol>
<symbol id="cookie" viewBox="0 0 24 24"><ns0:path fill="currentColor" d="M12 2c.78 0 1.54.09 2.27.27a4 4 0 0 0 4.46 3.46A4 4 0 0 0 22 10a10 10 0 1 1-10-8z" />
  <ns0:circle cx="9" cy="11" r="1.2" fill="currentColor" />
  <ns0:circle cx="13.5" cy="8.5" r="1" fill="currentColor" />
  <ns0:circle cx="14" cy="14.5" r="1.3" fill="currentColor" />
</symbol>
</svg>